<svg xmlns="http://www.w3.org/2000/svg" viewBox="0 0 84.81 85.1"><defs><style>.a{fill:#00a99d;}</style></defs><title>5</title><path class="a" d="M32,37V48c0,2.6,5.2,3.9,10.4,3.9S52.8,50.6,52.8,48V37C52.9,31.8,32,31.8,32,37ZM42.4,50.4c-5.7,0-8.8-1.5-8.8-2.3V46.7c1.9,1.2,5.4,1.8,8.8,1.8s6.9-.6,8.8-1.8v1.4C51.3,48.8,48.2,50.4,42.4,50.4Zm8.9-5.9c0,.8-3.1,2.3-8.8,2.3s-8.8-1.5-8.8-2.3V43.1c1.9,1.2,5.4,1.8,8.8,1.8s6.9-.6,8.8-1.8Zm0-3.5c0,.8-3.1,2.3-8.8,2.3s-8.8-1.5-8.8-2.3V39.2c1.9,1.2,5.4,1.8,8.8,1.8s6.9-.6,8.8-1.8Zm-8.9-1.7c-5.5,0-8.8-1.5-8.8-2.3s3.1-2.3,8.8-2.3,8.8,1.5,8.8,2.3S47.9,39.3,42.4,39.3Z"/><path class="a" d="M72.8,29.9c3.2-7.9,3.1-14.1-.3-17.5a10,10,0,0,0-7.3-2.6,27.5,27.5,0,0,0-10.1,2.3C51.9,4.6,47.5,0,42.5,0S33.1,4.6,29.9,12.1A27.91,27.91,0,0,0,19.8,9.8a10,10,0,0,0-7.3,2.6C9.1,15.8,9,22,12.2,29.9,4.6,33.1,0,37.6,0,42.5s4.6,9.4,12.1,12.6c-3.1,7.6-3.2,14,.3,17.5a10,10,0,0,0,7.3,2.6,27.5,27.5,0,0,0,10.1-2.3c3.2,7.5,7.6,12.2,12.6,12.2S51.8,80.5,55,72.9a27.91,27.91,0,0,0,10.1,2.3,10,10,0,0,0,7.3-2.6c3.5-3.5,3.4-9.9.3-17.5,7.5-3.2,12.1-7.6,12.1-12.6C85,37.5,80.4,33.1,72.8,29.9ZM65.2,11.4c2.7,0,4.8.7,6.2,2.2,2.9,2.9,2.8,8.6-.1,15.8a65.75,65.75,0,0,0-12.4-3.3,65.75,65.75,0,0,0-3.3-12.4,23.8,23.8,0,0,1,9.6-2.3ZM58.7,42.5c0,2.3-.1,4.5-.2,6.7-1.4,1.6-2.9,3.3-4.5,4.9s-3.2,3.1-4.8,4.5c-2.2.1-4.4.2-6.7.2s-4.5-.1-6.7-.2q-2.4-2.1-4.8-4.5c-1.6-1.6-3.1-3.2-4.5-4.9-.1-2.2-.2-4.4-.2-6.7s.1-4.5.2-6.7c1.4-1.6,2.9-3.3,4.5-4.9s3.2-3.1,4.8-4.5c2.2-.1,4.4-.2,6.7-.2s4.5.1,6.7.2c1.6,1.4,3.3,2.9,4.8,4.5s3.1,3.2,4.5,4.9c.1,2.2.2,4.4.2,6.7ZM55.1,29.9c-1.1-1.1-2.2-2.2-3.4-3.2,2,.2,4,.4,5.8.7.3,1.9.5,3.8.7,5.8-.9-1.1-2-2.2-3.1-3.3Zm-5.4-5c-2-1.7-3.9-3.3-5.9-4.7a67.16,67.16,0,0,1,10.4-6,65.33,65.33,0,0,1,3.1,11.5c-2.4-.4-4.9-.6-7.6-.8Zm-2.6-.2c-1.5-.1-3.1-.1-4.7-.1s-3.1,0-4.7.1c1.6-1.3,3.1-2.5,4.7-3.6,1.6,1.1,3.1,2.3,4.7,3.6Zm-12,.2c-2.6.2-5.1.5-7.5.8a63.64,63.64,0,0,1,3.1-11.5,67.16,67.16,0,0,1,10.4,6c-2,1.4-4,3-6,4.7Zm-1.9,1.8c-1.1,1-2.3,2.1-3.4,3.2s-2.2,2.2-3.2,3.4c.2-2,.4-4,.7-5.8a37.86,37.86,0,0,1,5.9-.8Zm-8.4,8.5c-1.7,2-3.3,3.9-4.7,5.9a65,65,0,0,1-5.9-10.4,63.64,63.64,0,0,1,11.5-3.1C25.3,30.1,25,32.6,24.8,35.2Zm-.1,2.7c-.1,1.5-.1,3.1-.1,4.6s0,3.1.1,4.6c-1.3-1.5-2.5-3.1-3.6-4.6,1.1-1.5,2.3-3.1,3.6-4.6Zm.1,11.9c.2,2.6.5,5.1.8,7.5a76.27,76.27,0,0,1-11.5-3.1A73.93,73.93,0,0,1,20,43.9C21.5,45.9,23.1,47.8,24.8,49.8Zm1.8,2c1,1.1,2.1,2.3,3.2,3.4s2.2,2.2,3.3,3.2c-2-.2-3.9-.4-5.8-.7-.3-2-.5-3.9-.7-5.9Zm8.5,8.3c2,1.7,4,3.3,5.9,4.7a67.16,67.16,0,0,1-10.4,6,65.33,65.33,0,0,1-3.1-11.5c2.5.4,5,.6,7.6.8Zm2.7.2c1.5.1,3.1.1,4.7.1s3.1,0,4.7-.1c-1.6,1.3-3.1,2.5-4.7,3.6A52.68,52.68,0,0,1,37.8,60.3Zm11.9-.2c2.6-.2,5.1-.5,7.5-.8a63.64,63.64,0,0,1-3.1,11.5,67.16,67.16,0,0,1-10.4-6,53.27,53.27,0,0,0,6-4.7Zm2-1.8c1.1-1,2.2-2.1,3.3-3.2s2.2-2.2,3.2-3.4c-.2,2-.4,3.9-.7,5.8a49.31,49.31,0,0,1-5.8.8Zm8.4-8.5c1.7-2,3.3-3.9,4.7-5.9a58.05,58.05,0,0,1,5.9,10.3,58.69,58.69,0,0,1-11.5,3.1q.6-3.6.9-7.5Zm.1-2.7c.1-1.5.1-3.1.1-4.6s0-3.1-.1-4.6c1.3,1.5,2.5,3.1,3.6,4.6a49.92,49.92,0,0,1-3.6,4.6Zm-.1-11.9c-.2-2.6-.5-5.1-.8-7.6a65.33,65.33,0,0,1,11.5,3.1,65,65,0,0,1-5.9,10.4c-1.5-1.9-3.1-3.9-4.8-5.9ZM42.4,1.5c4.3,0,8.2,4.3,11.2,11.2a77.5,77.5,0,0,0-11.2,6.4,58.86,58.86,0,0,0-11.2-6.4C34.2,5.8,38.1,1.5,42.4,1.5Zm-28.9,12a8.48,8.48,0,0,1,6.2-2.2,26.73,26.73,0,0,1,9.6,2.2A65.75,65.75,0,0,0,26,25.9a65.75,65.75,0,0,0-12.4,3.3C10.7,22.1,10.6,16.4,13.5,13.5Zm-12,29c0-4.3,4.3-8.2,11.2-11.2a66.9,66.9,0,0,0,6.4,11.1,64.47,64.47,0,0,0-6.4,11.1C5.8,50.6,1.5,46.7,1.5,42.5ZM19.7,73.6c-2.7,0-4.8-.7-6.2-2.1-3-3.1-2.8-8.8,0-15.8A65.75,65.75,0,0,0,25.9,59a65.75,65.75,0,0,0,3.3,12.4A24.58,24.58,0,0,1,19.7,73.6Zm22.7,9.9c-4.3,0-8.2-4.3-11.2-11.2a77.5,77.5,0,0,0,11.2-6.4,58.86,58.86,0,0,0,11.2,6.4c-2.9,6.9-6.8,11.2-11.2,11.2Zm29-12c-1.4,1.4-3.5,2.1-6.2,2.1a26.73,26.73,0,0,1-9.6-2.2A65.75,65.75,0,0,0,58.9,59a65.75,65.75,0,0,0,12.4-3.3c2.9,6.9,3.2,12.7.1,15.8Zm.8-17.9a72,72,0,0,0-6.4-11.1,72,72,0,0,0,6.4-11.1c6.9,2.9,11.2,6.8,11.2,11.2C83.4,46.7,79.1,50.6,72.2,53.6Z"/></svg>
