<svg xmlns="http://www.w3.org/2000/svg" viewBox="0 0 77.9 84.5"><defs><style>.a{fill:#00a99d;}</style></defs><title>6</title><path class="a" d="M59.4,16.2v-.8c0-4.5,2.1-5,3.7-5a14.28,14.28,0,0,1,6,1.9l1.2.7V8.9l-.2-.2C64.4,3,59.3,2.3,56,2.3H53.4V0H45.8V2.3h-6V5.7H37.6V5.6a3.33,3.33,0,0,0-3.3-3.3h-.8a3.33,3.33,0,0,0-3.3,3.3v7.3a3.33,3.33,0,0,0,3.3,3.3h.8a3.18,3.18,0,0,0,3.2-3h2.2v3h6V44a3,3,0,0,0-1.9,2.8V66.5a3,3,0,0,0,3,3h5.5a3,3,0,0,0,3-3V46.8A3.06,3.06,0,0,0,53.4,44V16.2ZM47.4,1.6h4.4v.7H47.4Zm-13.1,13h-.8a1.75,1.75,0,0,1-1.7-1.7V5.6a1.75,1.75,0,0,1,1.7-1.7h.8A1.75,1.75,0,0,1,36,5.6v7.3a1.63,1.63,0,0,1-1.56,1.7Zm3.3-3V7.3h2.2v4.3Zm3.8,3V3.9H56c1.9,0,6.9,0,12.7,5.7v.7a14.19,14.19,0,0,0-5.6-1.5c-1.9,0-5,.8-5.3,5.8ZM53.7,66.5a1.37,1.37,0,0,1-1.34,1.4H46.8a1.37,1.37,0,0,1-1.4-1.34V46.8a1.37,1.37,0,0,1,1.34-1.4H52.3a1.37,1.37,0,0,1,1.4,1.34V66.5ZM51.8,43.8H47.4V16.2h4.4Z"/><path class="a" d="M68.6,44.8a1.75,1.75,0,0,0,1.7-1.7V22.8a3,3,0,0,0-3-3H61.8a3,3,0,0,0-3,3V43.1a1.75,1.75,0,0,0,1.7,1.7.67.67,0,0,1,.7.66v3a2.43,2.43,0,0,0-2.4,2.4v.8A2.26,2.26,0,0,0,61,54H63.8V84.5h1.6V54h2.7a2.26,2.26,0,0,0,2.3-2.22v-1A2.43,2.43,0,0,0,68,48.4V45.5a.55.55,0,0,1,.4-.68A.44.44,0,0,1,68.6,44.8ZM68,50.1a.67.67,0,0,1,.7.66v.94a.67.67,0,0,1-.66.7H61.1a.67.67,0,0,1-.7-.66V50.9a.79.79,0,0,1,.78-.8h0a1.58,1.58,0,0,0,1.6-1.56v-3a2.43,2.43,0,0,0-2.4-2.4V22.8a1.37,1.37,0,0,1,1.34-1.4H67.3a1.37,1.37,0,0,1,1.4,1.34V37.5l-.1,5.7a2.26,2.26,0,0,0-2.3,2.22v3A1.75,1.75,0,0,0,68,50.1Z"/><polygon class="a" points="70.4 72.5 70.4 74.1 77.9 74.1 77.9 27.8 76.3 27.8 76.3 72.5 70.4 72.5"/><polygon class="a" points="58 72.5 1.6 72.5 1.6 28.6 40.7 28.6 40.7 27 0 27 0 74.1 58 74.1 58 72.5"/><rect class="a" x="8.5" y="34.9" width="2.9" height="1.6"/><rect class="a" x="20.3" y="34.9" width="2.9" height="1.6"/><rect class="a" x="38" y="34.9" width="2.1" height="1.6"/><rect class="a" x="14.4" y="34.9" width="2.9" height="1.6"/><rect class="a" x="32.1" y="34.9" width="2.9" height="1.6"/><rect class="a" x="26.2" y="34.9" width="2.9" height="1.6"/><rect class="a" x="20.3" y="44.5" width="2.9" height="1.6"/><rect class="a" x="8.5" y="44.5" width="2.9" height="1.6"/><rect class="a" x="14.4" y="44.5" width="2.9" height="1.6"/><rect class="a" x="26.2" y="44.5" width="2.9" height="1.6"/><rect class="a" x="32.1" y="44.5" width="2.9" height="1.6"/><rect class="a" x="38" y="44.5" width="2.1" height="1.6"/><rect class="a" x="8.5" y="54" width="2.9" height="1.6"/><rect class="a" x="20.3" y="54" width="2.9" height="1.6"/><rect class="a" x="26.2" y="54" width="2.9" height="1.6"/><rect class="a" x="32.1" y="54" width="2.9" height="1.6"/><rect class="a" x="38" y="54" width="2.1" height="1.6"/><rect class="a" x="14.4" y="54" width="2.9" height="1.6"/><rect class="a" x="14.4" y="63.6" width="2.9" height="1.6"/><rect class="a" x="20.3" y="63.6" width="2.9" height="1.6"/><rect class="a" x="8.5" y="63.6" width="2.9" height="1.6"/><rect class="a" x="38" y="63.6" width="2.1" height="1.6"/><rect class="a" x="26.2" y="63.6" width="2.9" height="1.6"/><rect class="a" x="32.1" y="63.6" width="2.9" height="1.6"/></svg>
