<svg xmlns="http://www.w3.org/2000/svg" viewBox="0 0 65.6 85.1"><defs><style>.a{fill:#00a99d;}</style></defs><title>7</title><path class="a" d="M61.2,51.4V67.2H44.9V83.5H3.7V50.8H2.1V85.1H46l.2-.2L62.7,68.4v-17ZM46.5,68.8H60.1L46.5,82.4Z"/><polygon class="a" points="61.2 1.6 3.7 1.6 3.7 29.6 2.1 29.6 2.1 0 62.8 0 62.8 30.4 61.2 30.4 61.2 1.6"/><path class="a" d="M32.5,52.2a10,10,0,0,0,10-10,1.76,1.76,0,0,0-.1-.6l-.1-1-1,.3a4.86,4.86,0,0,1-1.2.2,3.59,3.59,0,0,1-3.6-3.58v0a3.63,3.63,0,0,1,1.1-2.6l.7-.7-.9-.5a9.92,9.92,0,0,0-15,8.6A10.16,10.16,0,0,0,32.5,52.2Zm0-18.3a7.51,7.51,0,0,1,3.3.7,5.21,5.21,0,0,0,4.44,8.14l.56,0a8.36,8.36,0,0,1-8.4,7.9A8.45,8.45,0,0,1,24,42.2,8.66,8.66,0,0,1,32.5,33.9Z"/><path class="a" d="M32.8,24C14.4,24,1.3,42.7.5,43.9l-.5.5.5.5c.1.1,13.7,14.2,32.3,14.2S65,45.1,65.1,44.9l.5-.5-.5-.5C64.3,42.7,51.3,24,32.8,24ZM58.4,38.4a53.65,53.65,0,0,0-12.7-6.5h0l-.2-.1c-.6-.2-1.3-.4-1.9-.6-.3-.1-.6-.2-1-.3-.6-.1-1.2-.3-1.8-.4l-1.5-.3c-.5-.1-.9-.1-1.4-.2a12.13,12.13,0,0,0-1.9-.2h-.7a20.9,20.9,0,0,0-2.5-.1c-.9,0-1.7.1-2.5.1h-.7a13.45,13.45,0,0,1-1.9.2c-.5.1-.9.1-1.4.2l-1.6.3a10.78,10.78,0,0,0-1.7.4l-1.2.3c-.6.2-1.2.3-1.7.5l-.2.1h0A50.16,50.16,0,0,0,7.2,38.3c5.5-5.6,14.6-12.8,25.6-12.8s20.1,7.3,25.6,12.9Zm-37-5.3c.5-.2,1.1-.3,1.6-.5l1.2-.3a15.06,15.06,0,0,1,2-.4,2.41,2.41,0,0,0,.8-.2,38.25,38.25,0,0,1,11.7,0,3.09,3.09,0,0,1,.9.2,13.65,13.65,0,0,1,1.9.4l1.3.3c.5.1,1,.3,1.5.4.2.1.3.1.5.2a14.59,14.59,0,0,1,3.1,9.2,15.1,15.1,0,1,1-27.1-9.2,1.12,1.12,0,0,0,.6-.1ZM2.3,44.4A53.42,53.42,0,0,1,18.5,34.2a17.24,17.24,0,0,0-2.2,8.3,16.88,16.88,0,0,0,7.4,13.9A50.77,50.77,0,0,1,2.3,44.4Zm39.8,12a16.69,16.69,0,0,0,7.5-13.9,17.24,17.24,0,0,0-2.2-8.3A53.42,53.42,0,0,1,63.6,44.4C61.3,46.5,53.2,53.5,42.1,56.4Z"/></svg>
