<svg xmlns="http://www.w3.org/2000/svg" viewBox="0 0 85.18 85.1"><defs><style>.a{fill:#00a99d;}</style></defs><title>8</title><path class="a" d="M63.47,42.6a20.9,20.9,0,1,0-20.9,20.9h0A21,21,0,0,0,63.47,42.6Zm-40.1.8h5.1A28.28,28.28,0,0,0,30,51.8h-4.2a17.49,17.49,0,0,1-2.4-8.4Zm38.4-1.6h-5.1a27.66,27.66,0,0,0-1.5-8.4h4.2a17.06,17.06,0,0,1,2.4,8.4Zm-6.7,0H50a55,55,0,0,0-.7-8.4h4.3a24.31,24.31,0,0,1,1.5,8.4Zm-7.7-10.1h-4V23.5c1.5.8,3,3.8,4,8.2Zm-5.6-8.2v8.2h-4c1-4.4,2.5-7.4,4-8.2Zm0,9.8v8.4h-5.1a52.6,52.6,0,0,1,.7-8.4Zm0,10.1v8.4h-4.3a53.79,53.79,0,0,1-.7-8.4Zm0,10v8.2c-1.5-.8-3-3.7-4-8.2Zm1.6,8.2V53.4h4c-1,4.5-2.5,7.4-4,8.2Zm0-9.8V43.4h5.1a50.39,50.39,0,0,1-.7,8.4Zm0-10V33.4h4.3a51.47,51.47,0,0,1,.7,8.4ZM49,31.7a21.33,21.33,0,0,0-2.8-7.6A14.64,14.64,0,0,1,53,31.7ZM39,24.1a21.72,21.72,0,0,0-2.8,7.6h-4A14.73,14.73,0,0,1,39,24.1Zm-3.1,9.2a47.23,47.23,0,0,0-.7,8.4h-5.1a28.28,28.28,0,0,1,1.5-8.4Zm-7.5,8.5h-5.1a18.61,18.61,0,0,1,2.3-8.4h4.2a31.1,31.1,0,0,0-1.4,8.4ZM30,43.4h5.1a57.69,57.69,0,0,0,.7,8.4h-4.2A28,28,0,0,1,30,43.4Zm6.2,10A21.72,21.72,0,0,0,39,61a14.69,14.69,0,0,1-6.8-7.6Zm10,7.6A21.33,21.33,0,0,0,49,53.4h4a14.61,14.61,0,0,1-6.8,7.6Zm3.1-9.2a46.32,46.32,0,0,0,.7-8.4h5.1a27.66,27.66,0,0,1-1.5,8.4Zm7.4-8.4h5.1a18.36,18.36,0,0,1-2.3,8.4h-4.2a25.27,25.27,0,0,0,1.4-8.4Zm1.8-11.7h-3.8a20.75,20.75,0,0,0-4.7-7A20,20,0,0,1,58.47,31.7Zm-23.3-6.9a18.12,18.12,0,0,0-4.7,7h-3.8a18.15,18.15,0,0,1,8.5-7Zm-8.5,28.6h3.8a21.05,21.05,0,0,0,4.7,7,19.43,19.43,0,0,1-8.5-7Zm23.3,7a18,18,0,0,0,4.7-7h3.8a20,20,0,0,1-8.5,7Z"/><rect class="a" x="59.91" y="7.48" width="1.6" height="33.9" transform="translate(0.51 50.08) rotate(-45)"/><rect class="a" x="43.88" y="59.85" width="33.8" height="1.6" transform="translate(-25.08 60.74) rotate(-45)"/><path class="a" d="M12.47,48.6l-.8.2c.1.4,24.2,24.4,24.6,24.5l.2-.8.5-.6c-.6-.5-23.3-23.3-23.9-23.9Z"/><rect class="a" x="7.58" y="23.56" width="33.8" height="1.6" transform="translate(-10.05 24.44) rotate(-44.99)"/><path class="a" d="M42.57,12.5a6.69,6.69,0,0,0,4.5-1.8,6.22,6.22,0,0,0,.11-8.8l-.11-.1a6.4,6.4,0,0,0-8.9,0,6.34,6.34,0,0,0-1.8,4.5,6.71,6.71,0,0,0,1.8,4.5A6.21,6.21,0,0,0,42.57,12.5Zm-3.4-9.6a4.73,4.73,0,0,1,3.3-1.4,4.51,4.51,0,0,1,3.3,1.4,4.71,4.71,0,0,1,0,6.6,4.83,4.83,0,0,1-6.7,0,4.75,4.75,0,0,1-1.4-3.3,6,6,0,0,1,1.5-3.3Z"/><path class="a" d="M47.07,74.3a6.25,6.25,0,0,0-10.7,4.5,6.71,6.71,0,0,0,1.8,4.5,6.26,6.26,0,0,0,4.5,1.8,6.69,6.69,0,0,0,4.5-1.8A6.26,6.26,0,0,0,49,78.8,6.78,6.78,0,0,0,47.07,74.3ZM46,82.1a4.83,4.83,0,0,1-6.7,0,4.75,4.75,0,0,1-1.4-3.3,4.55,4.55,0,0,1,1.4-3.3,4.73,4.73,0,0,1,3.3-1.4,4.51,4.51,0,0,1,3.3,1.4,4.67,4.67,0,0,1,1.4,3.3A5,5,0,0,1,46,82.1Z"/><path class="a" d="M6.27,48.8a6.69,6.69,0,0,0,4.5-1.8,6.22,6.22,0,0,0,.11-8.8l-.11-.1a6.4,6.4,0,0,0-8.9,0,6.23,6.23,0,0,0-.1,8.8l.1.1A6.47,6.47,0,0,0,6.27,48.8ZM3,39.2a4.73,4.73,0,0,1,3.3-1.4,4.51,4.51,0,0,1,3.3,1.4,4.74,4.74,0,0,1-6.7,6.7A4.94,4.94,0,0,1,3,39.2Z"/><path class="a" d="M74.37,38.1a6.25,6.25,0,0,0,4.5,10.7,6.69,6.69,0,0,0,4.5-1.8,6.26,6.26,0,0,0,1.8-4.5,6.25,6.25,0,0,0-10.8-4.4Zm7.8,7.8a4.74,4.74,0,1,1-3.4-8.1,4.51,4.51,0,0,1,3.3,1.4,4.67,4.67,0,0,1,1.4,3.3A4.25,4.25,0,0,1,82.17,45.9Z"/></svg>
