<?xml version="1.0" encoding="utf-8"?>
<!-- Generator: Adobe Illustrator 19.0.0, SVG Export Plug-In . SVG Version: 6.00 Build 0)  -->
<svg version="1.1" id="图层_1" xmlns="http://www.w3.org/2000/svg" xmlns:xlink="http://www.w3.org/1999/xlink" x="0px" y="0px"
	 viewBox="0 0 386 101.5" style="enable-background:new 0 0 386 101.5;" xml:space="preserve">
<style type="text/css">
	.st0{fill:#00A99D;}
	.st1{fill:#000101;}
</style>
<g id="XMLID_51_">
	<polygon id="XMLID_63_" class="st0" points="59,36.4 64.3,36.4 64.3,28.5 77.6,28.5 77.6,71.6 64.4,71.6 64.4,59.5 73,59.5 
		73,41.1 37,41.1 37,59.5 45.5,59.5 45.5,71.6 32.4,71.6 32.4,28.5 45.7,28.5 45.7,36.4 51,36.4 51,22.9 26.8,22.9 26.8,77.2 
		51,77.2 51,54 42.6,54 42.6,46.6 67.3,46.6 67.3,54.1 59,54.1 59,77.1 83.1,77.1 83.1,22.9 59,22.9 	"/>
	<path id="XMLID_60_" class="st0" d="M55.4,98C29.3,98,8,76.7,8,50.6S29.3,3.2,55.4,3.2c26.1,0,47.4,21.3,47.4,47.4S81.5,98,55.4,98
		 M55.4,7.2c-24,0-43.4,19.5-43.4,43.4c0,23.9,19.5,43.4,43.4,43.4c23.9,0,43.4-19.5,43.4-43.4C98.8,26.7,79.3,7.2,55.4,7.2"/>
	<polygon id="XMLID_59_" class="st0" points="47.1,80.4 47.1,87.4 46.1,87.4 46.1,81.9 45.5,82.5 44.8,81.8 46.1,80.4 	"/>
	<path id="XMLID_56_" class="st0" d="M51.4,82.6c0.3,0,0.7,0.1,1,0.3c0.3,0.1,0.6,0.3,0.8,0.6c0.2,0.2,0.4,0.5,0.5,0.8
		c0.1,0.3,0.2,0.6,0.1,1c0,0.3-0.1,0.6-0.2,0.9c-0.1,0.3-0.3,0.5-0.5,0.8c-0.2,0.2-0.5,0.4-0.8,0.5c-0.3,0.1-0.6,0.2-0.9,0.2h-0.2
		c-0.3,0-0.6-0.1-0.9-0.2c-0.3-0.1-0.5-0.3-0.8-0.6c0,0,0,0,0,0c0,0,0,0,0,0c-0.2-0.3-0.4-0.5-0.5-0.9c-0.1-0.3-0.1-0.6-0.1-1v0
		c0-0.1,0-0.4,0.1-0.6c0-0.3,0.2-0.6,0.3-1c0.2-0.4,0.5-0.8,0.9-1.4c0.4-0.5,0.9-1.1,1.6-1.7l0.7,0.7c-0.4,0.3-0.7,0.6-0.9,0.9
		c-0.3,0.3-0.5,0.5-0.7,0.8C50.9,82.6,51.1,82.5,51.4,82.6 M52.7,85.2c0-0.2,0-0.4-0.1-0.6c-0.1-0.2-0.2-0.4-0.3-0.5
		c-0.1-0.1-0.3-0.3-0.5-0.4c-0.2-0.1-0.4-0.1-0.6-0.2c0,0-0.1,0-0.1,0c-0.2,0-0.4,0-0.6,0.1c-0.2,0.1-0.3,0.2-0.5,0.3
		s-0.2,0.3-0.3,0.5c-0.1,0.2-0.1,0.4-0.1,0.6c0,0.2,0,0.4,0.1,0.6c0.1,0.2,0.2,0.4,0.3,0.5c0.3,0.3,0.6,0.5,1.1,0.5
		c0.2,0,0.4,0,0.6-0.1c0.2-0.1,0.4-0.2,0.5-0.3c0.1-0.1,0.3-0.3,0.3-0.5C52.7,85.6,52.7,85.4,52.7,85.2"/>
	<path id="XMLID_55_" class="st0" d="M58.6,83.7c0.2,0.1,0.4,0.3,0.6,0.5c0.2,0.2,0.3,0.4,0.4,0.6c0.1,0.2,0.1,0.5,0.1,0.7
		c0,0.3-0.1,0.6-0.2,0.8c-0.1,0.3-0.3,0.5-0.5,0.7c-0.2,0.2-0.5,0.3-0.8,0.4c-0.3,0.1-0.6,0.2-1,0.2c-0.3,0-0.6,0-0.8-0.1
		c-0.3-0.1-0.5-0.2-0.7-0.3c-0.2-0.1-0.4-0.3-0.6-0.4c-0.2-0.2-0.3-0.3-0.4-0.5l0.9-0.4c0.1,0.2,0.3,0.4,0.6,0.6
		c0.3,0.2,0.6,0.2,1,0.2c0.2,0,0.4,0,0.6-0.1c0.2-0.1,0.4-0.1,0.5-0.2c0.1-0.1,0.3-0.2,0.3-0.4c0.1-0.1,0.1-0.3,0.1-0.4
		c0-0.2,0-0.3-0.1-0.4c-0.1-0.1-0.2-0.3-0.3-0.4c-0.1-0.1-0.3-0.2-0.5-0.2c-0.2-0.1-0.4-0.1-0.6-0.1h-0.2h-0.4l-0.2-0.7l0.2-0.2
		l1.7-2h-3.1v-1h3.9h0.4v1l-1.8,2.1C58.1,83.5,58.4,83.6,58.6,83.7"/>
	<path id="XMLID_52_" class="st0" d="M63.5,82.6c0.3,0,0.7,0.1,1,0.3c0.3,0.1,0.6,0.3,0.8,0.6c0.2,0.2,0.4,0.5,0.5,0.8
		c0.1,0.3,0.2,0.6,0.1,1c0,0.3-0.1,0.6-0.2,0.9c-0.1,0.3-0.3,0.5-0.5,0.8c-0.2,0.2-0.5,0.4-0.8,0.5c-0.3,0.1-0.6,0.2-0.9,0.2h-0.2
		c-0.3,0-0.6-0.1-0.9-0.2c-0.3-0.1-0.5-0.3-0.8-0.6c0,0,0,0,0,0c0,0,0,0,0,0c-0.2-0.3-0.4-0.5-0.5-0.9c-0.1-0.3-0.1-0.6-0.1-1v0
		c0-0.1,0-0.4,0.1-0.6c0-0.3,0.2-0.6,0.3-1c0.2-0.4,0.5-0.8,0.9-1.4c0.4-0.5,0.9-1.1,1.6-1.7l0.7,0.7c-0.4,0.3-0.7,0.6-0.9,0.9
		c-0.3,0.3-0.5,0.5-0.7,0.8C63,82.6,63.2,82.5,63.5,82.6 M64.8,85.2c0-0.2,0-0.4-0.1-0.6c-0.1-0.2-0.2-0.4-0.3-0.5
		c-0.1-0.1-0.3-0.3-0.5-0.4c-0.2-0.1-0.4-0.1-0.6-0.2c0,0-0.1,0-0.1,0c-0.2,0-0.4,0-0.6,0.1c-0.2,0.1-0.3,0.2-0.5,0.3
		c-0.1,0.1-0.2,0.3-0.3,0.5c-0.1,0.2-0.1,0.4-0.1,0.6c0,0.2,0,0.4,0.1,0.6c0.1,0.2,0.2,0.4,0.3,0.5c0.3,0.3,0.6,0.5,1.1,0.5
		c0.2,0,0.4,0,0.6-0.1c0.2-0.1,0.4-0.2,0.5-0.3c0.1-0.1,0.3-0.3,0.3-0.5S64.8,85.4,64.8,85.2"/>
	<polygon id="XMLID_32_" class="st1" points="134.4,32.9 134.4,47.4 117.9,47.4 117.9,32.9 113.4,32.9 113.4,66.3 117.9,66.3 
		117.9,51.8 134.4,51.8 134.4,66.3 138.9,66.3 138.9,32.9 	"/>
	<path id="XMLID_29_" class="st1" d="M157.8,67.1c-1.7,0-3.3-0.3-4.8-1c-1.5-0.6-2.8-1.5-3.9-2.6c-1.1-1.1-2-2.4-2.6-3.9
		c-0.7-1.5-1-3.1-1-4.8c0-1.7,0.3-3.3,1-4.8s1.5-2.8,2.6-3.9c1.1-1.1,2.4-2,3.9-2.6c1.5-0.7,3.1-1,4.8-1c1.7,0,3.3,0.3,4.8,1
		c1.5,0.7,2.8,1.5,3.9,2.6c1.1,1.1,2,2.4,2.6,3.9c0.6,1.5,1,3.1,1,4.8c0,1.7-0.3,3.3-1,4.8c-0.7,1.5-1.5,2.8-2.6,3.9
		c-1.1,1.1-2.4,2-3.9,2.6C161.1,66.8,159.5,67.1,157.8,67.1 M157.8,46.5c-1.1,0-2.2,0.2-3.2,0.6c-1,0.4-1.9,1-2.6,1.8
		c-0.7,0.8-1.3,1.7-1.7,2.7c-0.4,1-0.6,2.1-0.6,3.2c0,1.1,0.2,2.2,0.6,3.2c0.4,1,1,1.9,1.7,2.6c0.7,0.7,1.6,1.3,2.6,1.8
		c1,0.4,2.1,0.6,3.2,0.6c1.1,0,2.2-0.2,3.2-0.6c1-0.4,1.9-1,2.6-1.8c0.7-0.7,1.3-1.6,1.8-2.6c0.4-1,0.6-2.1,0.6-3.2
		c0-1.1-0.2-2.2-0.6-3.2c-0.4-1-1-1.9-1.8-2.7c-0.7-0.8-1.6-1.4-2.6-1.8C160.1,46.7,159,46.5,157.8,46.5"/>
	<path id="XMLID_28_" class="st1" d="M175.6,59.4c-0.1-0.6-0.2-1.2-0.2-1.7v-0.7V43.4h4v13.5c0,0.5,0.1,1.2,0.2,1.9
		c0.1,0.7,0.4,1.4,0.7,2.1c0.4,0.7,0.9,1.2,1.7,1.7c0.7,0.5,1.8,0.7,3,0.7c1.5,0,2.7-0.2,3.7-0.7c0.9-0.5,1.6-1,2.1-1.7
		c0.5-0.6,0.8-1.3,1-2c0.2-0.7,0.3-1.2,0.3-1.6v-14h4.1v22.9H192v-2c-0.6,0.6-1.2,1.1-1.8,1.5c-0.6,0.3-1.3,0.7-2.2,1
		c-0.9,0.3-1.9,0.5-3.1,0.5c-1.7,0-3.2-0.3-4.3-0.8c-1.1-0.5-2.1-1.2-2.8-2c-0.7-0.8-1.2-1.6-1.6-2.5
		C175.9,61,175.7,60.1,175.6,59.4"/>
	<path id="XMLID_27_" class="st1" d="M212.5,52.3c0.9,0.2,1.8,0.4,3,0.7c1.1,0.3,2.2,0.7,3.2,1.3s1.8,1.3,2.5,2.2
		c0.7,0.9,1,2.1,1,3.5c0,2.2-0.9,4-2.7,5.2c-1.8,1.3-4.3,1.9-7.4,1.9c-1.1,0-2.2-0.1-3.2-0.4c-1-0.2-1.9-0.6-2.8-1
		c-0.8-0.4-1.6-1-2.2-1.5c-0.6-0.6-1.1-1.2-1.4-2l3.6-1.3c0.4,0.6,1.2,1.1,2.3,1.6c1.1,0.4,2.3,0.7,3.7,0.7c0.5,0,1,0,1.7-0.1
		c0.7-0.1,1.3-0.2,1.9-0.4c0.6-0.2,1.1-0.5,1.6-1c0.4-0.4,0.7-1,0.7-1.7c0-0.3,0-0.6-0.1-1c-0.1-0.3-0.3-0.6-0.7-1
		c-0.4-0.3-1-0.6-1.9-1c-0.8-0.3-2-0.6-3.5-1c-1-0.2-2.1-0.5-3.2-0.7c-1.1-0.3-2-0.7-2.9-1.2c-0.8-0.5-1.5-1.1-2.1-1.9
		c-0.5-0.8-0.8-1.8-0.8-3c0-2,0.8-3.7,2.4-5c1.6-1.3,3.8-1.9,6.6-1.9c1.1,0,2.1,0.1,3.1,0.3s1.9,0.5,2.7,1c0.8,0.4,1.5,0.9,2.2,1.5
		c0.6,0.6,1.1,1.2,1.4,2l-3.6,1.3c-0.4-0.6-1.1-1.1-2-1.5c-1-0.4-2.1-0.6-3.3-0.6c-1.6,0-2.9,0.3-3.8,0.8c-0.9,0.5-1.4,1.2-1.4,2.1
		c0,0.3,0,0.5,0.1,0.8c0.1,0.2,0.3,0.5,0.6,0.7c0.3,0.2,0.9,0.5,1.6,0.7C210.2,51.8,211.2,52.1,212.5,52.3"/>
	<path id="XMLID_24_" class="st1" d="M231,55.9c0.1,1,0.4,2,0.8,2.9c0.4,0.9,1,1.6,1.6,2.3c0.7,0.6,1.4,1.1,2.2,1.5
		c0.8,0.4,1.7,0.6,2.7,0.6c1.5,0,2.8-0.3,4-1c1.2-0.7,2.1-1.6,2.9-2.8l3.3,2.1c-1.1,1.7-2.5,3.1-4.3,4.1c-1.8,1-3.7,1.5-5.9,1.5
		c-1.5,0-2.9-0.3-4.2-0.9c-1.3-0.6-2.5-1.4-3.5-2.4c-1-1-1.8-2.2-2.5-3.5c-0.7-1.4-1-2.8-1.2-4.4c0-0.2,0-0.3,0-0.5
		c0-0.2,0-0.4,0-0.6c0-1,0.1-2,0.3-2.9c0.3-1.3,0.8-2.6,1.5-3.7c0.7-1.2,1.5-2.2,2.5-3c1-0.8,2.1-1.5,3.3-2s2.5-0.7,3.8-0.7
		c1.3,0,2.6,0.2,3.8,0.7c1.2,0.5,2.3,1.1,3.3,2c1,0.8,1.8,1.8,2.5,3c0.7,1.2,1.2,2.4,1.5,3.7c0.2,0.9,0.3,1.8,0.3,2.9v0.6
		c0,0.2,0,0.4,0,0.5H231z M245.4,52c-0.5-1.6-1.4-2.9-2.7-4c-1.3-1-2.7-1.5-4.3-1.5c-1.6,0-3.1,0.5-4.3,1.5c-1.3,1-2.2,2.3-2.7,4
		H245.4z"/>
	<polygon id="XMLID_23_" class="st1" points="273.2,32.9 273.2,37.2 263.2,37.2 263.2,66.3 258.8,66.3 258.8,37.2 248.9,37.2 
		248.9,32.9 	"/>
	<path id="XMLID_20_" class="st1" d="M284.1,67.1c-1.7,0-3.3-0.3-4.8-1c-1.5-0.6-2.8-1.5-3.9-2.6c-1.1-1.1-2-2.4-2.6-3.9
		c-0.7-1.5-1-3.1-1-4.8c0-1.7,0.3-3.3,1-4.8c0.6-1.5,1.5-2.8,2.6-3.9c1.1-1.1,2.4-2,3.9-2.6c1.5-0.7,3.1-1,4.8-1
		c1.7,0,3.3,0.3,4.8,1c1.5,0.7,2.8,1.5,3.9,2.6c1.1,1.1,2,2.4,2.6,3.9c0.6,1.5,1,3.1,1,4.8c0,1.7-0.3,3.3-1,4.8
		c-0.7,1.5-1.5,2.8-2.6,3.9c-1.1,1.1-2.4,2-3.9,2.6C287.3,66.8,285.7,67.1,284.1,67.1 M284.1,46.5c-1.1,0-2.2,0.2-3.2,0.6
		c-1,0.4-1.9,1-2.6,1.8c-0.7,0.8-1.3,1.7-1.7,2.7c-0.4,1-0.6,2.1-0.6,3.2c0,1.1,0.2,2.2,0.6,3.2c0.4,1,1,1.9,1.7,2.6
		c0.7,0.7,1.6,1.3,2.6,1.8c1,0.4,2.1,0.6,3.2,0.6s2.2-0.2,3.2-0.6c1-0.4,1.9-1,2.6-1.8c0.7-0.7,1.3-1.6,1.8-2.6
		c0.4-1,0.6-2.1,0.6-3.2c0-1.1-0.2-2.2-0.6-3.2c-0.4-1-1-1.9-1.8-2.7c-0.7-0.8-1.6-1.4-2.6-1.8C286.3,46.7,285.2,46.5,284.1,46.5"/>
	<polygon id="XMLID_19_" class="st1" points="323.5,66.3 318.2,66.3 309.4,55.8 306.6,58.8 306.6,66.3 302.5,66.3 302.5,63 
		302.5,57.1 302.5,32.9 306.6,32.9 306.6,52.8 317.3,41.7 320.2,44.5 312.3,52.8 	"/>
	<path id="XMLID_16_" class="st1" d="M327,55.9c0.1,1,0.4,2,0.8,2.9c0.4,0.9,1,1.6,1.6,2.3c0.6,0.6,1.4,1.1,2.2,1.5
		c0.8,0.4,1.7,0.6,2.7,0.6c1.5,0,2.8-0.3,4-1c1.2-0.7,2.1-1.6,2.9-2.8l3.3,2.1c-1.1,1.7-2.5,3.1-4.3,4.1c-1.8,1-3.7,1.5-5.9,1.5
		c-1.5,0-2.9-0.3-4.2-0.9c-1.3-0.6-2.5-1.4-3.5-2.4c-1-1-1.8-2.2-2.5-3.5c-0.6-1.4-1-2.8-1.2-4.4c0-0.2,0-0.3,0-0.5
		c0-0.2,0-0.4,0-0.6c0-1,0.1-2,0.3-2.9c0.3-1.3,0.8-2.6,1.5-3.7c0.7-1.2,1.5-2.2,2.5-3c1-0.8,2.1-1.5,3.3-2c1.2-0.5,2.5-0.7,3.8-0.7
		c1.3,0,2.6,0.2,3.8,0.7c1.2,0.5,2.3,1.1,3.3,2c1,0.8,1.8,1.8,2.5,3c0.7,1.2,1.2,2.4,1.5,3.7c0.2,0.9,0.3,1.8,0.3,2.9v0.6
		c0,0.2,0,0.4,0,0.5H327z M341.4,52c-0.5-1.6-1.4-2.9-2.7-4c-1.3-1-2.7-1.5-4.3-1.5c-1.6,0-3.1,0.5-4.3,1.5c-1.3,1-2.1,2.3-2.7,4
		H341.4z"/>
	<path id="XMLID_15_" class="st1" d="M372.1,50.3c0.1,0.4,0.1,0.7,0.1,0.9c0,0.3,0,0.5,0,0.7v0.7v13.7h-4V52.8
		c0-0.5-0.1-1.1-0.2-1.9c-0.1-0.7-0.4-1.4-0.7-2.1c-0.4-0.7-1-1.2-1.7-1.7c-0.8-0.5-1.8-0.7-3-0.7c-1.5,0-2.7,0.2-3.6,0.7
		c-0.9,0.5-1.6,1-2.1,1.7c-0.5,0.7-0.8,1.3-1,2c-0.2,0.7-0.3,1.2-0.3,1.5v14h-4V43.4h4v2c0,0,0.2-0.2,0.5-0.5c0.3-0.3,0.7-0.7,1.3-1
		s1.3-0.7,2.2-1c0.9-0.3,1.9-0.5,3-0.5c1.7,0,3.2,0.3,4.4,0.8c1.2,0.5,2.1,1.2,2.8,2c0.7,0.8,1.2,1.6,1.6,2.5
		C371.8,48.7,372,49.5,372.1,50.3"/>
</g>
</svg>
