<svg xmlns="http://www.w3.org/2000/svg" viewBox="0 0 85.2 95.3"><defs><style>.a{fill:#00a99d;}</style></defs><title>3</title><path class="a" d="M29.9,40.7,18,47.6V62.2l12.7,7.3,11.9-6.9,11.9,6.9,12.7-7.3V47.6L55.3,40.7V26.8L42.6,19.5,29.9,26.8ZM19.6,61.3V48.5l11.1-6.4,11.1,6.4V61.3L30.7,67.7Zm45.9,0L54.4,67.7,43.3,61.3V48.5l11.1-6.4,11.1,6.4Zm-34-33.5,11.1-6.4,11.1,6.4V40.6L42.6,47,31.5,40.6Z"/><path class="a" d="M20.6,83.5l.8-1.4A41,41,0,0,1,33.9,6.9l-.3-1.6A43,43,0,0,0,0,47,42.16,42.16,0,0,0,20.6,83.5Z"/><polygon class="a" points="77.3 95.3 84.3 88.8 77.3 82.3 76.2 83.4 81.1 88 65 88 65 89.6 81.1 89.6 76.2 94.2 77.3 95.3"/><path class="a" d="M53.2,12,49,6.6A41,41,0,0,1,42.5,88H.8v1.6H42.6A42.58,42.58,0,0,0,49.5,5L55,1.3,54.1,0l-8,5.3L52,12.9Z"/></svg>
