<svg xmlns="http://www.w3.org/2000/svg" viewBox="0 0 84.89 85.23"><defs><style>.a{fill:#00a99d;}</style></defs><title>9</title><path class="a" d="M74.59,32.32a10.28,10.28,0,0,0-9.2,5.7l-5.9-2.5,2.5-5.9a11.61,11.61,0,0,0,3.2.5,10.24,10.24,0,0,0,10.3-10.18v-.12a10.42,10.42,0,0,0-3-7.3,10,10,0,0,0-7.3-3,10.41,10.41,0,0,0-7.3,3,10.07,10.07,0,0,0-2.4,10.6l-5.9,2.4-2.5-6a10.47,10.47,0,0,0,5.7-9.2,10.3,10.3,0,1,0-14.9,9.2l-2.5,5.9-5.9-2.5a10.28,10.28,0,0,0-9.8-13.5A10.3,10.3,0,0,0,12.39,27a10.05,10.05,0,0,0,7.3,3,11.55,11.55,0,0,0,3.2-.5l2.5,6-5.9,2.4a10.29,10.29,0,1,0-9.2,14.9h0a10.38,10.38,0,0,0,9.4-6.2l5.8,2.5-2.7,6.4a11.19,11.19,0,0,0-3.2-.5,10.41,10.41,0,0,0-7.3,3,10.27,10.27,0,0,0-3,7.3,10.49,10.49,0,0,0,3,7.3,10.31,10.31,0,0,0,7.3,3,10.49,10.49,0,0,0,7.3-3,9.89,9.89,0,0,0,3-7.3,8.5,8.5,0,0,0-.6-3.2l5.9-2.4,2.5,6a10.48,10.48,0,0,0-5.7,9.2,10.3,10.3,0,1,0,14.9-9.2l2.6-6.2,5.9,2.5a9.82,9.82,0,0,0-.6,3.4,10.49,10.49,0,0,0,3,7.3,10.32,10.32,0,1,0,14.6-14.6,9.83,9.83,0,0,0-7.3-3,11.25,11.25,0,0,0-3.2.5l-2.5-5.9,5.9-2.4a10.48,10.48,0,0,0,9.2,5.7,10.35,10.35,0,1,0,.1-20.7Zm-9.8,7.2a10.25,10.25,0,0,0-.5,2.4h-7.5l2-4.8Zm1.1,2.3a12,12,0,0,1,.4-1.8l4.3,1.8Zm4.7,1.6-4.3,1.8a5.81,5.81,0,0,1-.3-1.8Zm-30.8,23.2a11.13,11.13,0,0,1,1.8-.4v4.6Zm3.3-.4,1.8.3-1.8,4.3Zm1.8-47.5a6.12,6.12,0,0,1-1.8.3v-4.6Zm-3.4.3a12.31,12.31,0,0,1-1.8-.4l1.8-4.3Zm1.6,21.7V30.52l7.2,3Zm8.4-6.1,3,7.3H44.19Zm-10,6.1-7.2-7.2,7.2-3Zm-1.1,1.1H30.19l3-7.2Zm0,1.6-7.2,7.2-3-7.2Zm1.1,1.1v9.9l-6.9-2.9Zm1.6.1,7.2,7.2-7.2,3Zm1.2-1.2h10.2l-3,7.2Zm9-8.7,4.2,1.7-1.7,4.2Zm-8.7-5.4,4.1-1.7,1.7,4.1Zm-10.3,2.5,1.8-4.2,4.3,1.8ZM29,40.62l-1.7-4.1,4.1-1.7Zm2.2,9.4-3.7-1.6,1.5-3.7Zm9.5,5.8-4.6,1.9-2-4.7Zm9.6-2.3-1.6,3.9-3.9-1.6Zm5.4-8.8,1.7,4.1-4.1,1.7Zm2.3-9.8-4.9-2,5.3-5.3a15.28,15.28,0,0,0,2,1.4Zm.5-9.5a4.42,4.42,0,0,1-.9-1.4l4-1.6Zm4.4-2.2-1.8,4.3a15,15,0,0,1-1.5-1ZM59,13.72A8.77,8.77,0,1,1,71.65,25.86l-.26.26a9,9,0,0,1-6.2,2.6,12,12,0,0,1-2.6-.4l3.3-8-.7-.3-.3-.3-.1-.3h-.1l-.1-.1-.2.2-7.5,3.1a8.69,8.69,0,0,1,2.1-8.9Zm-3,10.9a13.58,13.58,0,0,0,1.3,1.9L52,31.82l-2-4.7Zm-8,1.6-4.9,2v-7.5a10.35,10.35,0,0,0,2.4-.5Zm-14.4-15.8a8.7,8.7,0,1,1,12.7,7.7l-3.3-8-.7.3-.7-.3-3.3,8a8.81,8.81,0,0,1-4.7-7.7Zm5.6,9.8a10.35,10.35,0,0,0,2.4.5v7.5l-4.8-2ZM34.59,27l-2,4.8-5.3-5.3a15.28,15.28,0,0,0,1.4-2Zm-11.7-4.9,4.3,1.8a13.48,13.48,0,0,1-1,1.5Zm2.2,4.4a14,14,0,0,1-1.5,1l-1.8-4.3Zm-5.6,2.1a8.7,8.7,0,1,1,0-17.4h0a9,9,0,0,1,6.2,2.5,8.65,8.65,0,0,1,2.1,8.7l-8-3.3-.3.7-.7.3,3.3,8a7.7,7.7,0,0,1-2.6.5Zm4.7.4a9.33,9.33,0,0,0,2-1.4l5.3,5.3-4.9,2Zm1.6,8,2,4.8h-7.5a10.25,10.25,0,0,0-.5-2.4Zm-11.7,4.8,4.2-1.7a4.91,4.91,0,0,1,.3,1.7Zm4.6,1.6a4.94,4.94,0,0,1-.2,1.2l-2.8-1.2Zm-8.6,8h0a8.7,8.7,0,1,1,7.7-12.7l-8,3.3.3.7v.8h1.6l6.4,2.7a8.87,8.87,0,0,1-8,5.2Zm9.9-6.1a11.27,11.27,0,0,0,.3-1.8h7.5L26,47.82Zm6.9,4.6,5,2.1-5.6,5.6a8,8,0,0,0-2-1.3Zm-.7,10a11.85,11.85,0,0,1,1,1.5l-4.3,1.8Zm-4.3,2,1.7-4.2a11.51,11.51,0,0,1,1.5,1Zm6.4,3.5a8.77,8.77,0,1,1-8.84-8.7h0a11.44,11.44,0,0,1,2.6.4l-3.3,8,.8.3.3.7,8-3.3a11.36,11.36,0,0,1,.4,2.6Zm.4-4.7a8.67,8.67,0,0,0-1.4-2l5.3-5.3,2,4.8Zm8-1.5,4.9-2v7.5a9.86,9.86,0,0,0-2.4.5Zm14.4,15.7a8.7,8.7,0,1,1-12.7-7.7l3.3,8,.7-.3.7.3,3.3-8a8.64,8.64,0,0,1,4.7,7.7Zm-5.6-9.8a18,18,0,0,0-2.4-.5v-7.8l5,2.1Zm4.7-7,1.9-4.6,5.3,5.3a9.1,9.1,0,0,0-1.2,1.8Zm11.2,4.7-3.8-1.6a15,15,0,0,1,.9-1.3Zm-1.8-4a12.22,12.22,0,0,1,1.5-1l1.8,4.3Zm5.5-2.1a8.83,8.83,0,1,1-8.8,8.86,9,9,0,0,1,.5-3l7.5,3.2.2.2.1-.1h.1l.1-.3.3-.3.7-.3-3.3-8a22.74,22.74,0,0,1,2.6-.3Zm-4.6-.4a8.67,8.67,0,0,0-2,1.4l-5.3-5.3,4.9-2Zm-1.6-8-2-4.8h7.5a10.46,10.46,0,0,0,.5,2.4Zm15.7,3.1a8.8,8.8,0,0,1-7.7-4.7l8-3.3-.3-.7.3-.7-8-3.3a8.69,8.69,0,1,1,7.7,12.7Z"/></svg>
