<svg xmlns="http://www.w3.org/2000/svg" viewBox="0 0 62.5 90.7"><defs><style>.a{fill:#00a99d;}</style></defs><title>wps</title><path class="a" d="M42.2,57a20.46,20.46,0,0,0-2.5,9.2H22.5a20.82,20.82,0,0,0-2.4-9l-1.4.7a18.13,18.13,0,0,1,2.2,8.3h-.5V72l-.9.1.2,1.6.8-.1v3.1l-.9.1.2,1.6.8-.1v3.1l-.9.1.2,1.6.8-.1v3.7h5.9v1.2a2.8,2.8,0,0,0,2.8,2.8h3.9a2.8,2.8,0,0,0,2.8-2.8h0V86.7H42V80.9l.9-.1-.2-1.6-.8.1V76.2l.9-.1-.2-1.6-.8.1V71.5l.9-.1-.2-1.6-.8.1V66.2h-.5a18.32,18.32,0,0,1,2.3-8.4ZM34.3,87.9a1.22,1.22,0,0,1-1.2,1.2H29.2A1.22,1.22,0,0,1,28,87.9V86.7h6.3ZM40.2,85H22V82.8L40.2,81Zm0-5.6L22,81.2V78.1l18.2-1.8Zm0-4.7L22,76.5V73.4l18.2-1.8ZM22,71.7v-4H40.2v2.2Z"/><path class="a" d="M53,21.1a23.82,23.82,0,0,1,2.1,11.5l-4.4-5.3-1.2,1,6.1,7.4L62.5,29l-1.1-1.1-4.7,4.5a24.3,24.3,0,0,0-2.3-11.9A25.94,25.94,0,0,0,44.2,9.2l-.8,1.4A23.79,23.79,0,0,1,53,21.1Z"/><path class="a" d="M21.1,9.4A22.34,22.34,0,0,1,32.4,7.3l-5.3,4.5,1,1.2,7.3-6.2L28.7,0,27.6,1.1l4.5,4.6A25.26,25.26,0,0,0,9,18.5l1.4.8A23.8,23.8,0,0,1,21.1,9.4Z"/><path class="a" d="M5.7,30A24.3,24.3,0,0,0,8,41.9,24.49,24.49,0,0,0,18.3,53.2l.8-1.4A23.74,23.74,0,0,1,7.4,29.7L11.8,35,13,34,6.9,26.6,0,33.3l1.1,1.1Z"/><path class="a" d="M53.4,44,52,43.2A24.11,24.11,0,0,1,41.3,53a22.51,22.51,0,0,1-11.4,2.1l5.3-4.5-1-1.2-7.3,6.2,6.7,6.9,1.1-1.1-4.5-4.6c.3,0,.7.1,1,.1A25.52,25.52,0,0,0,42,54.5,26.24,26.24,0,0,0,53.4,44Z"/><path class="a" d="M18.5,28.8a3.11,3.11,0,0,0,4.4,4.4,3.26,3.26,0,0,0,0-4.5A3.35,3.35,0,0,0,18.5,28.8ZM21.8,30a1.56,1.56,0,1,1-.16-.16Z"/><path class="a" d="M23.7,23.6A3.11,3.11,0,1,0,28.1,28h0a3.11,3.11,0,0,0-4.4-4.4ZM27,27a1.61,1.61,0,1,1-.16-2.36c.05.05.11.1.16.16A1.57,1.57,0,0,1,27,27Z"/><path class="a" d="M33.3,18.4a3.18,3.18,0,1,0-4.5,4.5,3.14,3.14,0,0,0,4.4,0,3,3,0,0,0,.36-4.23Zm-1.1,3.4a1.56,1.56,0,0,1-2.36-2c.05-.05.1-.11.16-.16a1.46,1.46,0,0,1,2.06-.14l.14.14A1.57,1.57,0,0,1,32.2,21.8Z"/><path class="a" d="M28.1,34a3.18,3.18,0,0,0-4.5,4.5,3.14,3.14,0,0,0,4.4,0A3.17,3.17,0,0,0,28.12,34ZM27,37.4a1.56,1.56,0,1,1-2.36-2c.05,0,.1-.11.16-.16a1.46,1.46,0,0,1,2.06-.14.93.93,0,0,1,.14.14,1.57,1.57,0,0,1,0,2.2Z"/><path class="a" d="M28.9,28.8a3.26,3.26,0,0,0,0,4.5,3.14,3.14,0,0,0,4.4,0,3.26,3.26,0,0,0,0-4.5A3.14,3.14,0,0,0,28.9,28.8Zm3.3,3.4A1.56,1.56,0,0,1,30,30a1.46,1.46,0,0,1,2.06-.14l.14.14A1.57,1.57,0,0,1,32.2,32.2Z"/><path class="a" d="M33.1,25.8A3.11,3.11,0,0,0,38.4,28a3.18,3.18,0,0,0-4.5-4.5h0A4.89,4.89,0,0,0,33.1,25.8Zm2.1-1.1a1.46,1.46,0,0,1,2.06-.14.93.93,0,0,1,.14.14,1.56,1.56,0,1,1-2,2.36s-.11-.1-.16-.16a1.46,1.46,0,0,1-.14-2.06A.93.93,0,0,1,35.2,24.7Z"/><path class="a" d="M31.1,44.6a3.12,3.12,0,0,0,2.2-.9,3.18,3.18,0,0,0-4.5-4.5,3.14,3.14,0,0,0,0,4.4A2.93,2.93,0,0,0,31.1,44.6ZM30,40.3a1.46,1.46,0,0,1,2.06-.14l.14.14A1.56,1.56,0,0,1,30,42.5a1.46,1.46,0,0,1-.14-2.06Z"/><path class="a" d="M38.5,38.5a3.18,3.18,0,1,0-4.5,0,3.12,3.12,0,0,0,2.2.9A3.17,3.17,0,0,0,38.5,38.5Zm-3.3-1.2a1.57,1.57,0,0,1,0-2.2A1.46,1.46,0,0,1,37.26,35a.93.93,0,0,1,.14.14,1.56,1.56,0,0,1-2.2,2.2Z"/><path class="a" d="M39.3,33.3a3.14,3.14,0,0,0,4.4,0,3.18,3.18,0,1,0-4.42,0Zm1.1-3.4a1.46,1.46,0,0,1,2.06-.14l.14.14a1.56,1.56,0,1,1-2.21,0Z"/></svg>
